<?xml version="1.0" encoding="UTF-8" standalone="no"?>
<svg width="1200px" height="630px" viewBox="0 0 1200 630" version="1.1" xmlns="http://www.w3.org/2000/svg" xmlns:xlink="http://www.w3.org/1999/xlink">
    <!-- Generator: Sketch 40 (33762) - http://www.bohemiancoding.com/sketch -->
    <title>Fb Preview</title>
    <desc>Created with Sketch.</desc>
    <defs></defs>
    <g id="Page-1" stroke="none" stroke-width="1" fill="none" fill-rule="evenodd">
        <g id="Fb-Preview" stroke="#05027F" stroke-width="16" fill="#D3001D">
            <g id="Sunoco_USA" transform="translate(198.000000, 9.000000)">
                <g id="Layer_2" transform="translate(401.000000, 307.000000) scale(1, -1) translate(-401.000000, -307.000000) ">
                    <path d="M239.051988,484.637702 L239.216045,484.708335 C239.216045,484.708335 313.366959,429.636677 400.739218,364.745833 C488.111476,429.636677 562.262391,484.708335 562.262391,484.708335 L562.426447,484.637702 C578.113169,496.238265 667.115887,562.165734 668.277184,563.028073 C667.385631,564.226044 651.486268,585.676927 651.486268,585.676927 L801.465307,613.887788 L730.717419,478.751277 C730.717419,478.751277 713.525754,501.963088 712.602682,503.183577 C711.47248,502.336891 650.74781,457.327416 640.846168,449.999978 L640.689338,450.066947 C631.42316,443.173303 553.386858,385.233799 463.254223,318.316363 C571.45746,237.954634 678.238915,158.64933 678.507531,158.451715 C679.227978,158.627358 695.505575,162.766212 695.505575,162.766212 L801.465307,84.1820292 C801.465307,84.1820292 745.954872,61.8979708 745.058816,61.5376788 C744.964257,60.5874088 739.425821,0.769934307 739.425821,0.769934307 L633.276972,79.4531971 C633.276972,79.4531971 634.182034,97.7515255 634.20905,98.5576788 C633.911838,98.7918906 517.927866,184.899822 400.739218,271.903494 C283.55057,184.899822 167.566598,98.7918906 167.269385,98.5576788 C167.296402,97.7515255 168.201464,79.4531971 168.201464,79.4531971 L62.0526145,0.769934307 C62.0526145,0.769934307 56.5141788,60.5874088 56.4196201,61.5376788 C55.5235642,61.8979708 0.0131284916,84.1820292 0.0131284916,84.1820292 L105.97286,162.766212 C105.97286,162.766212 122.250458,158.627358 122.970905,158.451715 C123.239521,158.64933 230.020976,237.954634 338.224213,318.316363 C248.091578,385.233799 170.055276,443.173303 160.789098,450.066947 L160.632268,449.999978 C150.730626,457.327416 90.0059553,502.336891 88.8757542,503.183577 C87.9526816,501.963088 70.7610168,478.751277 70.7610168,478.751277 L0.0131284916,613.887788 L149.992168,585.676927 C149.992168,585.676927 134.092804,564.226044 133.201251,563.028073 C134.362549,562.165734 223.365267,496.238265 239.051988,484.637702 Z" id="Combined-Shape"></path>
                </g>
            </g>
        </g>
    </g>
</svg>