<?xml version="1.0" encoding="UTF-8" standalone="no"?>
<svg width="1240px" height="796px" viewBox="0 0 1240 796" version="1.1" xmlns="http://www.w3.org/2000/svg" xmlns:xlink="http://www.w3.org/1999/xlink">
    <!-- Generator: Sketch 41.2 (35397) - http://www.bohemiancoding.com/sketch -->
    <title>NoSunoco-graphic</title>
    <desc>Created with Sketch.</desc>
    <defs>
        <path d="M160.353306,287.162802 C164.833485,277.070333 177.42822,268.93749 188.467554,268.997497 L1114.69615,274.032244 C1143.96462,274.19134 1157.78942,295.874108 1145.56453,322.484214 L1073.74063,478.82442 C1069.12905,488.862516 1056.42739,497 1045.39646,497 L595.702824,497 L564.502568,497 L122.972813,491.423274 C93.7037921,491.053592 79.6050356,469.063908 91.4838508,442.304578 L160.353306,287.162802 Z" id="path-1"></path>
        <mask id="mask-2" maskContentUnits="userSpaceOnUse" maskUnits="objectBoundingBox" x="-24" y="-24" width="1110.74461" height="276.002833">
            <rect x="63.270595" y="244.997167" width="1110.74461" height="276.002833" fill="white"></rect>
            <use xlink:href="#path-1" fill="black"></use>
        </mask>
        <polygon id="path-3" points="0 379.042969 612.535156 116.015625 1240 381.292969 612.535156 646.570312"></polygon>
        <mask id="mask-4" maskContentUnits="userSpaceOnUse" maskUnits="objectBoundingBox" x="0" y="0" width="1240" height="530.554688" fill="white">
            <use xlink:href="#path-3"></use>
        </mask>
        <rect id="path-5" x="293" y="11" width="482" height="215"></rect>
        <filter x="-50%" y="-50%" width="200%" height="200%" filterUnits="objectBoundingBox" id="filter-6">
            <feOffset dx="2" dy="2" in="SourceAlpha" result="shadowOffsetOuter1"></feOffset>
            <feGaussianBlur stdDeviation="11" in="shadowOffsetOuter1" result="shadowBlurOuter1"></feGaussianBlur>
            <feColorMatrix values="0 0 0 0 0   0 0 0 0 0   0 0 0 0 0  0 0 0 0.25317029 0" type="matrix" in="shadowBlurOuter1"></feColorMatrix>
        </filter>
    </defs>
    <g id="Page-1" stroke="none" stroke-width="1" fill="none" fill-rule="evenodd">
        <g id="NoSunoco-graphic">
            <g id="Rectangle-Copy">
                <use fill="#FFFF0C" fill-rule="evenodd" xlink:href="#path-1"></use>
                <use stroke="#001EA7" mask="url(#mask-2)" stroke-width="48" xlink:href="#path-1"></use>
            </g>
            <use id="Path-2" stroke="#0025A5" mask="url(#mask-4)" stroke-width="48" stroke-linecap="square" stroke-linejoin="round" fill="#FFFF0C" xlink:href="#path-3"></use>
            <g id="crossed_arrows" transform="translate(170.000000, 42.000000)" stroke="#001EA7" stroke-width="16" fill="#D80F0F">
                <g id="Fb-Preview" transform="translate(0.000000, 0.943168)">
                    <path d="M268.546308,145.249899 L268.730552,145.171233 L450.192177,279.983367 L631.653802,145.171233 L631.838046,145.249899 C649.461471,132.213931 749.451126,58.1246828 750.755441,57.1559756 C749.754455,55.8096748 731.89286,31.7032487 731.89286,31.7032487 L900.384354,0.00112379032 L820.903122,151.865652 C820.903122,151.865652 801.590041,125.780231 800.553105,124.408083 C799.283616,125.359934 731.062637,175.941736 719.93832,184.175748 L719.76194,184.100454 C709.352132,191.847864 621.683259,256.959151 520.424116,332.159828 C601.031573,392.046035 681.639991,451.930948 762.24937,511.814567 C763.058248,511.617904 781.345627,506.966536 781.345627,506.966536 L900.385478,595.278474 L837.015519,620.725582 C836.908792,621.793183 830.687173,689.016072 830.687173,689.016072 L711.434993,600.592879 C711.434993,600.592879 712.451707,580.028639 712.48204,579.122864 C712.148378,578.859898 581.847151,482.092561 450.192177,384.319432 C318.538327,482.092561 188.2371,578.859898 187.903438,579.122864 C187.933771,580.028639 188.950485,600.592879 188.950485,600.592879 L69.6983042,689.016072 C69.6983042,689.016072 63.4755623,621.794307 63.3699589,620.725582 L0,595.278474 L119.03985,506.966536 C119.03985,506.966536 137.326106,511.617904 138.136107,511.814567 C138.438313,511.59318 258.400509,422.469866 379.960238,332.160952 C278.702218,256.959151 191.032222,191.847864 180.622414,184.101577 L180.446034,184.175748 C169.32284,175.941736 101.101862,125.359934 99.8323728,124.408083 C98.7954364,125.779108 79.4812319,151.865652 79.4812319,151.865652 L3.19301249e-14,0 L168.493741,31.7032487 C168.493741,31.7032487 150.631022,55.8096748 149.628913,57.1559756 C150.934352,58.1246828 250.922883,132.213931 268.546308,145.249899 Z" id="Shape"></path>
                </g>
            </g>
            <g id="Group" transform="translate(87.000000, 268.000000)">
                <g id="Rectangle-2">
                    <use fill="black" fill-opacity="1" filter="url(#filter-6)" xlink:href="#path-5"></use>
                    <use fill="#D8D8D8" fill-rule="evenodd" xlink:href="#path-5"></use>
                </g>
                <path d="M73.3533065,19.1628024 C77.833485,9.07033332 90.4282197,0.937490267 101.467554,0.997497317 L1027.69615,6.03224361 C1056.96462,6.19133966 1070.78942,27.874108 1058.56453,54.4842145 L986.740628,210.82442 C982.129049,220.862516 969.427394,229 958.396464,229 L508.702824,229 L477.502568,229 L35.9728131,223.423274 C6.70379211,223.053592 -7.39496441,201.063908 4.48385081,174.304578 L73.3533065,19.1628024 Z" id="Rectangle" fill="#FFFF0C"></path>
                <path d="M165.559766,24.7856614 L201.004066,24.7856614 L128.351673,205.214339 L95.1226421,205.214339 L101.581147,110.503335 L63.4442994,205.214339 L28,205.214339 L100.652393,24.7856614 L133.881424,24.7856614 L126.743924,121.182914 L165.559766,24.7856614 Z M250.626085,24.7856614 L283.412062,24.7856614 C305.121804,24.7856614 311.299042,36.4019294 301.943963,59.634814 L257.356669,170.365186 C248.001589,193.598071 232.469411,205.214339 210.759669,205.214339 L177.973692,205.214339 C156.26395,205.214339 150.086712,193.598071 159.441791,170.365186 L204.029085,59.634814 C213.384165,36.4019294 228.916343,24.7856614 250.626085,24.7856614 Z M221.192278,163.90123 L260.573949,66.0987697 C262.233721,61.9768063 261.217556,59.9158555 257.525423,59.9158555 L248.221294,59.9158555 C244.529161,59.9158555 241.853249,61.9768063 240.193476,66.0987697 L200.811805,163.90123 C199.152033,168.023194 200.168198,170.084144 203.860331,170.084144 L213.16446,170.084144 C216.856593,170.084144 219.532505,168.023194 221.192278,163.90123 Z M375.818034,163.90123 L386.116115,138.326449 C387.775887,134.204486 386.759722,132.143535 383.067589,132.143535 L361.801009,132.143535 C350.872295,132.143535 344.381803,129.098948 342.329337,123.009684 C340.276871,116.92042 341.551666,108.161379 346.153762,96.732299 L361.091637,59.634814 C370.446717,36.4019294 385.905053,24.7856614 407.46711,24.7856614 L437.816291,24.7856614 C459.378348,24.7856614 465.481745,36.4019294 456.126665,59.634814 L447.412905,81.2750136 L408.645702,81.2750136 L414.756651,66.0987697 C416.416423,61.9768063 415.400258,59.9158555 411.708125,59.9158555 L405.283846,59.9158555 C401.591713,59.9158555 398.9158,61.9768063 397.256028,66.0987697 L386.505285,92.7977173 C384.845513,96.9196807 385.861678,98.9806315 389.553811,98.9806315 L410.377337,98.9806315 C421.30605,98.9806315 427.926967,101.884698 430.240284,107.69292 C432.553602,113.501141 431.446951,122.025983 426.9203,133.267701 L411.982425,170.365186 C402.627345,193.598071 387.169009,205.214339 365.606952,205.214339 L335.479298,205.214339 C313.769556,205.214339 307.592317,193.598071 316.947397,170.365186 L325.661157,148.724986 L364.42836,148.724986 L358.317411,163.90123 C356.657639,168.023194 357.673804,170.084144 361.365937,170.084144 L367.790216,170.084144 C371.482349,170.084144 374.158262,168.023194 375.818034,163.90123 Z M545.256824,24.7856614 L584.024027,24.7856614 L525.404183,170.365186 C516.049103,193.598071 500.516925,205.214339 478.807183,205.214339 L446.021207,205.214339 C424.311465,205.214339 418.134226,193.598071 427.489306,170.365186 L486.109149,24.7856614 L524.876352,24.7856614 L468.85932,163.90123 C467.199548,168.023194 468.215713,170.084144 471.907846,170.084144 L481.211974,170.084144 C484.904107,170.084144 487.58002,168.023194 489.239792,163.90123 L545.256824,24.7856614 Z M666.65355,24.7856614 L702.097849,24.7856614 L629.445456,205.214339 L596.216425,205.214339 L602.674931,110.503335 L564.538083,205.214339 L529.093783,205.214339 L601.746176,24.7856614 L634.975207,24.7856614 L627.837707,121.182914 L666.65355,24.7856614 Z M751.719868,24.7856614 L784.505845,24.7856614 C806.215587,24.7856614 812.392826,36.4019294 803.037746,59.634814 L758.450452,170.365186 C749.095372,193.598071 733.563194,205.214339 711.853452,205.214339 L679.067475,205.214339 C657.357733,205.214339 651.180495,193.598071 660.535575,170.365186 L705.122869,59.634814 C714.477948,36.4019294 730.010126,24.7856614 751.719868,24.7856614 Z M722.286061,163.90123 L761.667732,66.0987697 C763.327504,61.9768063 762.311339,59.9158555 758.619206,59.9158555 L749.315077,59.9158555 C745.622944,59.9158555 742.947032,61.9768063 741.28726,66.0987697 L701.905589,163.90123 C700.245817,168.023194 701.261982,170.084144 704.954115,170.084144 L714.258243,170.084144 C717.950376,170.084144 720.626289,168.023194 722.286061,163.90123 Z M902.224646,92.2356342 L863.457444,92.2356342 L875.113513,63.2883542 C876.773285,59.1663908 875.75712,57.10544 872.064987,57.10544 L864.311546,57.10544 C860.619413,57.10544 857.943501,59.1663908 856.283729,63.2883542 L814.638743,166.711646 C812.978971,170.833609 813.995136,172.89456 817.687269,172.89456 L825.44071,172.89456 C829.132843,172.89456 831.808755,170.833609 833.468528,166.711646 L844.671934,138.888532 L883.439136,138.888532 L870.764576,170.365186 C861.409496,193.598071 845.877318,205.214339 824.167576,205.214339 L792.932287,205.214339 C771.222545,205.214339 765.045307,193.598071 774.400387,170.365186 L818.987681,59.634814 C828.34276,36.4019294 843.874938,24.7856614 865.58468,24.7856614 L896.819969,24.7856614 C918.529711,24.7856614 924.70695,36.4019294 915.35187,59.634814 L902.224646,92.2356342 Z M975.683535,24.7856614 L1008.46951,24.7856614 C1030.17925,24.7856614 1036.35649,36.4019294 1027.00141,59.634814 L982.414119,170.365186 C973.059039,193.598071 957.526861,205.214339 935.817119,205.214339 L903.031142,205.214339 C881.3214,205.214339 875.144162,193.598071 884.499242,170.365186 L929.086536,59.634814 C938.441616,36.4019294 953.973793,24.7856614 975.683535,24.7856614 Z M946.249728,163.90123 L985.631399,66.0987697 C987.291171,61.9768063 986.275006,59.9158555 982.582873,59.9158555 L973.278744,59.9158555 C969.586611,59.9158555 966.910699,61.9768063 965.250927,66.0987697 L925.869256,163.90123 C924.209484,168.023194 925.225649,170.084144 928.917782,170.084144 L938.22191,170.084144 C941.914043,170.084144 944.589956,168.023194 946.249728,163.90123 Z" id="NO-SUNOCO" fill="#001EA7"></path>
            </g>
        </g>
    </g>
</svg>