<?xml version="1.0" encoding="UTF-8" standalone="no"?>
<svg width="494px" height="217px" viewBox="0 0 494 217" version="1.1" xmlns="http://www.w3.org/2000/svg" xmlns:xlink="http://www.w3.org/1999/xlink">
    <!-- Generator: Sketch 41.2 (35397) - http://www.bohemiancoding.com/sketch -->
    <title>Group 3</title>
    <desc>Created with Sketch.</desc>
    <defs>
        <path d="M28.4715073,29.771336 C30.6751987,28.1504281 33.3946478,27.1912977 36.3373685,27.1912977 C43.6785413,27.1912977 49.6398951,33.1607104 49.6398951,40.5118073 C49.6398951,47.86514 43.6785413,53.8323169 36.3373685,53.8323169 C32.4301141,53.8323169 28.9135852,52.1421012 26.4799239,49.4525119 C26.408477,45.8596856 26.3459609,42.2668593 26.707661,38.6986262 C27.0135432,35.6803838 27.7369435,32.724742 28.4715073,29.771336 L28.4715073,29.771336 Z" id="path-1"></path>
        <mask id="mask-2" maskContentUnits="userSpaceOnUse" maskUnits="objectBoundingBox" x="-2" y="-2" width="27.2148622" height="30.6410191">
            <rect x="24.4250329" y="25.1912977" width="27.2148622" height="30.6410191" fill="white"></rect>
            <use xlink:href="#path-1" fill="black"></use>
        </mask>
        <path d="M121.66064,49.9622595 C119.231444,52.5780695 115.764035,54.2146276 111.919297,54.2146276 C104.578124,54.2146276 98.6167703,48.2452149 98.6167703,40.894118 C98.6167703,33.5430211 104.578124,27.5736084 111.919297,27.5736084 C114.797269,27.5736084 117.463133,28.4902598 119.642264,30.0485672 L121.549004,39.0809369 L121.66064,49.9622595 Z" id="path-3"></path>
        <mask id="mask-4" maskContentUnits="userSpaceOnUse" maskUnits="objectBoundingBox" x="-2" y="-2" width="27.0438699" height="30.6410191">
            <rect x="96.6167703" y="25.5736084" width="27.0438699" height="30.6410191" fill="white"></rect>
            <use xlink:href="#path-3" fill="black"></use>
        </mask>
        <path d="M18.9132468,86.4069769 C17.2409419,81.343037 14.2044471,71.4342591 13.9342883,65.4559035 C13.5279339,56.4928416 18.3193441,35.8614783 18.3193441,35.8614783 C18.3193441,35.8614783 25.6694477,7.34467748 26.0110534,5.86462087 C27.1899278,0.747023282 29.3378014,0.065124085 32.0148288,0.990718406 C37.1567755,2.76812779 38.3423482,4.16099074 37.0696996,7.03391031 C35.7546294,9.99849502 33.9327325,11.6574104 30.3626184,10.6245008 C30.3514548,10.6222651 24.477177,38.4526953 24.477177,38.4526953 L24.2806979,57.7940394 C24.2806979,57.7940394 31.8183497,56.62475 34.7298124,56.7723085 C38.2619704,56.9489316 46.8958861,58.1405784 46.8958861,58.1405784 L54.6746714,59.8755088 L50.5486108,70.8552037 L48.2957996,89.4699339 C47.8939105,91.8666419 48.0993205,94.6814324 48.2489125,95.3678031 C48.7356448,97.5811808 49.8118142,102.819508 50.8366312,107.355815 C53.0894425,117.322721 52.2521737,156.03671 52.2521737,156.03671 L45.9492142,209.030338 C45.7549679,210.713847 44.2568149,211.905494 42.568881,211.784764 C40.0526092,211.60367 39.257762,210.248814 39.2555293,208.634613 C39.2399003,199.188633 39.195246,169.520428 39.195246,169.520428 L41.8097573,155.057458 L35.6139683,120.247063 C33.8746819,120.987091 29.987522,120.294013 29.987522,120.294013 L17.8683353,157.516767 L16.8814745,171.592955 C16.8814745,171.592955 9.5782579,200.346743 7.25399974,209.499843 C6.85657615,211.064857 5.45443001,211.972566 3.27083301,211.740049 C1.58736455,211.561191 0.444213564,209.922397 0.667485242,208.241124 L7.46834055,156.718609 C7.46834055,156.718609 13.4564869,115.531898 16.3947422,107.771661 C16.9238961,106.376563 18.0067637,103.177226 18.8574288,100.275242 C18.9020832,100.259591 20.945019,99.4882628 21.9586724,98.0372707 C22.7624505,96.8903387 23.5840903,96.6287577 23.8520163,94.3259505 C23.9681175,93.3131625 22.9924203,91.301001 22.1730132,89.984153 C21.3491408,88.6650693 19.2079654,86.6193717 18.9132468,86.4069769 L18.9132468,86.4069769 Z" id="path-5"></path>
        <mask id="mask-6" maskContentUnits="userSpaceOnUse" maskUnits="objectBoundingBox" x="-2" y="-2" width="58.0350159" height="215.152039">
            <rect x="-1.36034454" y="-1.35886357" width="58.0350159" height="215.152039" fill="white"></rect>
            <use xlink:href="#path-5" fill="black"></use>
        </mask>
        <path d="M128.896875,98.8711999 C129.767635,102.121959 131.221133,106.463756 131.861923,108.153972 C134.800178,115.914208 140.788325,157.10092 140.788325,157.10092 L147.58918,208.623435 C147.812452,210.302472 146.669301,211.943501 144.985832,212.12236 C142.802235,212.354877 141.400089,211.447168 141.002666,209.879918 C138.678407,200.726818 131.375191,171.975265 131.375191,171.975265 L130.38833,157.899077 L118.269143,120.676324 C118.269143,120.676324 114.381983,121.367166 112.642697,120.627138 L106.446908,155.437533 L109.061419,169.902739 C109.061419,169.902739 109.016765,199.570943 109.001136,209.014688 C108.998903,210.631125 108.204056,211.98598 105.687784,212.164839 C103.99985,212.285569 102.501697,211.096158 102.307451,209.410413 L96.0044917,156.419021 C96.0044917,156.419021 95.1672229,117.705032 97.4200341,107.738125 C98.4448511,103.201819 99.5210206,97.9634915 100.007753,95.747878 C100.157345,95.0637431 100.362755,92.2467169 99.9608658,89.8522446 L97.7259163,71.3895444 C98.1590634,70.7165881 94.7028178,63.5845933 92.9166444,60.405378 L101.360779,58.5228891 C101.360779,58.5228891 109.994695,57.3312423 113.526853,57.1546192 C116.438316,57.0070607 123.975967,58.1741144 123.975967,58.1741144 L123.779488,38.835006 C123.779488,38.835006 117.905211,11.0045758 117.894047,11.0068115 C114.323933,12.0374854 112.502036,10.3808057 111.186966,7.41622101 C109.914317,4.5410657 111.09989,3.14820275 116.241837,1.3730291 C118.918864,0.447434783 121.066738,1.12933398 122.245612,6.24693156 C122.587218,7.72698818 129.937321,36.243789 129.937321,36.243789 C129.937321,36.243789 134.728731,56.8729166 134.322377,65.8382142 C134.092407,70.9580475 131.830665,78.9619791 130.1338,84.3366862 C129.54213,84.5781456 127.121865,86.8116449 126.41856,88.1419073 C125.049904,90.7308885 124.699368,92.5373625 124.831098,93.4405994 C125.067766,95.0659788 125.757675,96.7897306 126.840543,97.8785336 C127.68451,98.7281129 128.608855,98.8018921 128.896875,98.8711999 L128.896875,98.8711999 Z" id="path-7"></path>
        <mask id="mask-8" maskContentUnits="userSpaceOnUse" maskUnits="objectBoundingBox" x="-2" y="-2" width="58.7003655" height="215.149817">
            <rect x="90.9166444" y="-0.976552871" width="58.7003655" height="215.149817" fill="white"></rect>
            <use xlink:href="#path-7" fill="black"></use>
        </mask>
        <path d="M57.1284271,107.03834 C57.4253785,103.139218 59.4281254,95.376746 59.5978119,91.5402246 C59.794291,87.0352184 58.1554768,77.6160666 58.1554768,77.6160666 L50.6691775,88.5331609 C50.6691775,88.5331609 52.8192837,70.5354936 52.8081202,69.1180376 C53.8664279,66.7995803 54.8622196,64.633153 55.6570668,62.9183442 C56.1906861,63.2514687 58.548435,65.1361934 60.598069,65.198794 C63.136668,65.2725732 66.7536692,63.2604117 67.5820071,62.0978294 C68.6693402,60.5663509 67.92138,57.105433 67.8700275,56.9288099 C70.2478709,56.6962935 72.525242,56.5129632 74.2288049,56.4906059 C75.3741886,56.4749557 77.8100826,56.7164151 80.4938082,57.0070607 C80.3955687,57.7940394 81.110038,60.9352472 81.3601023,61.755762 C82.1058297,64.2128348 84.925751,65.3530597 86.5824269,65.1361934 C87.5201679,65.0109922 91.1103765,63.4526849 91.9789033,62.9250514 C92.9769277,64.7762401 94.2451108,67.1505907 95.5802755,69.6590855 C95.6137662,71.0586556 97.4981792,88.0860139 97.4981792,88.0860139 L97.4311977,88.1173142 L89.0116227,75.8185356 C89.0116227,75.8185356 86.8235603,86.2437682 87.0267375,91.0036482 C87.2232166,95.5869051 90.0967231,101.03092 90.4070707,106.21559 C91.1349364,118.438353 89.3822537,155.913745 89.3822537,155.913745 L85.9438699,210.291293 C85.8500958,211.784764 84.5863781,212.833324 83.0926905,212.880274 C79.8909747,212.978647 79.4667585,211.648384 79.399777,210.210807 C78.9599318,200.93027 77.468477,169.38852 77.468477,169.38852 L79.3305628,154.288365 L79.368519,154.288365 L75.9613932,117.21317 C74.1640561,117.564181 72.3086685,117.651375 70.5358914,117.143863 L67.3832953,153.825568 L67.4234842,153.823332 L69.2654755,168.927958 C69.2654755,168.927958 67.7360645,200.465237 67.2850558,209.748009 C67.2158415,211.183351 65.9498911,212.399591 63.5899095,212.41077 C62.0939892,212.417477 60.8325043,211.313024 60.7409629,209.819553 L57.3695605,155.437533 C57.3695605,155.437533 56.1951515,119.258868 57.1284271,107.03834 L57.1284271,107.03834 Z" id="path-9"></path>
        <mask id="mask-10" maskContentUnits="userSpaceOnUse" maskUnits="objectBoundingBox" x="-2" y="-2" width="50.8290017" height="160.395524">
            <rect x="48.6691775" y="54.4898854" width="50.8290017" height="160.395524" fill="white"></rect>
            <use xlink:href="#path-9" fill="black"></use>
        </mask>
        <path d="M65.2153273,55.4711107 C65.6529398,58.3574447 67.7226682,60.7630956 63.4001286,62.4935545 C60.7454283,63.5555287 59.9394176,62.9429373 56.4273541,60.7675671 C54.5563374,59.6072206 56.4139578,56.0367517 59.42366,53.9306892 C61.8416922,52.236002 64.6191919,51.5518671 65.2153273,55.4711107 Z" id="path-11"></path>
        <mask id="mask-12" maskContentUnits="userSpaceOnUse" maskUnits="objectBoundingBox" x="-2" y="-2" width="14.4179836" height="14.4190631">
            <rect x="53.6760587" y="50.5832245" width="14.4179836" height="14.4190631" fill="white"></rect>
            <use xlink:href="#path-11" fill="black"></use>
        </mask>
        <path d="M18.7748183,89.460991 C20.456054,91.8465203 23.3831457,93.0694674 20.290833,96.5527427 C18.390791,98.6923411 17.3972321,98.5067751 13.2845678,98.1356431 C11.0920399,97.9366627 11.1567887,93.9123395 12.9072386,90.6794666 C14.3116175,88.0793067 16.490749,86.2236466 18.7748183,89.460991 L18.7748183,89.460991 Z" id="path-13"></path>
        <mask id="mask-14" maskContentUnits="userSpaceOnUse" maskUnits="objectBoundingBox" x="-2" y="-2" width="14.0334542" height="14.627663">
            <rect x="9.61495892" y="85.7380904" width="14.0334542" height="14.627663" fill="white"></rect>
            <use xlink:href="#path-13" fill="black"></use>
        </mask>
        <path d="M84.2470051,61.7445833 C82.1058297,59.654171 82.5389768,58.3932164 83.0413381,55.0888 C83.6374734,51.1717921 86.4149731,51.8536913 88.8330054,53.5483785 C91.8427076,55.6566767 93.6802335,59.1958453 91.8293113,60.3852564 C86.0622039,64.0876337 85.4906284,62.9585874 84.2470051,61.7445833 Z" id="path-15"></path>
        <mask id="mask-16" maskContentUnits="userSpaceOnUse" maskUnits="objectBoundingBox" x="-2" y="-2" width="13.9412897" height="14.7079001">
            <rect x="80.6305859" y="50.2016818" width="13.9412897" height="14.7079001" fill="white"></rect>
            <use xlink:href="#path-15" fill="black"></use>
        </mask>
        <path d="M127.416584,94.5338739 C126.396232,91.7190834 127.333974,90.7711318 129.220619,88.0144704 C131.457801,84.7458257 133.661493,86.5701856 135.103828,89.1479881 C136.898932,92.3562679 137.017266,96.3448193 134.835902,96.608636 C128.035047,97.4336223 128.010487,96.1681962 127.416584,94.5338739 L127.416584,94.5338739 Z" id="path-17"></path>
        <mask id="mask-18" maskContentUnits="userSpaceOnUse" maskUnits="objectBoundingBox" x="-2" y="-2" width="13.4636942" height="14.6117347">
            <rect x="124.997875" y="84.2562527" width="13.4636942" height="14.6117347" fill="white"></rect>
            <use xlink:href="#path-17" fill="black"></use>
        </mask>
        <ellipse id="path-19" cx="74.0479549" cy="40.4268494" rx="13.3025266" ry="13.3205096"></ellipse>
        <mask id="mask-20" maskContentUnits="userSpaceOnUse" maskUnits="objectBoundingBox" x="-2" y="-2" width="30.6050531" height="30.6410191">
            <rect x="58.7454283" y="25.1063398" width="30.6050531" height="30.6410191" fill="white"></rect>
            <use xlink:href="#path-19" fill="black"></use>
        </mask>
        <path d="M81.4530116,27.526553 C79.8460803,19.9250499 77.779064,10.1667578 77.7745753,10.1690022 C74.4103436,11.1385473 72.6934407,9.580991 71.4568219,6.79130447 C70.256112,4.08690199 71.3737821,2.77622063 76.2170191,1.10420416 C78.7396318,0.235653328 80.7617618,0.877528105 81.8726989,5.69158894 C82.1936363,7.08306573 89.1195998,33.9093917 89.1195998,33.9093917 C89.1195998,33.9093917 93.6329221,53.3182486 93.2491439,61.7501491 C92.896786,69.5513964 87.5306231,84.4671298 87.5306231,84.4671298 C87.2051971,85.9371577 87.353322,88.0647706 87.4992027,89.799628 C87.6877253,92.0596556 90.0779234,99.3065565 90.930764,101.557607 C93.6980073,108.858371 99.3402213,147.604267 99.3402213,147.604267 L105.745503,196.072546 C105.958713,197.652545 104.879197,199.196636 103.294709,199.364959 C101.236669,199.582658 99.9170109,198.727573 99.5422099,197.255301 C97.3517561,188.646099 90.4729232,161.595342 90.4729232,161.595342 L89.5437758,148.353869 L78.1269332,113.338029 C78.1269332,113.338029 74.4664515,113.988881 72.8280998,113.293143 L66.9906302,146.039978 L69.4548907,159.647274 C69.4548907,159.647274 69.4100044,187.557606 69.3965385,196.442858 C69.3942942,197.962261 68.6446921,199.234789 66.274693,199.405357 C64.6857162,199.519817 63.2740406,198.397659 63.0922509,196.81317 L57.153787,146.962392 C57.153787,146.962392 56.3637873,110.543854 58.4869116,101.167096 C59.4519681,96.898404 60.4663995,91.9721272 60.9242403,89.8871564 C61.0656323,89.2430373 61.2586436,86.5947427 60.8815982,84.3414481 L58.6036161,63.9361142 C58.6036161,63.9361142 52.1848683,58.8819114 46.5000123,53.4798394 L3.81309527,54.9521117 C2.63707295,54.9925094 1.64957329,54.0723392 1.60917558,52.8963169 C1.4049427,46.9376542 0.823664488,30.1322055 0.619431604,24.1712984 C0.57903389,22.9952761 1.49920403,22.0100208 2.67522635,21.9696231 L25.4034287,21.1212711 C25.3787412,20.7778905 25.9353319,18.4707322 28.4557004,18.2193687 C32.1969775,17.8490563 32.4864944,20.9417257 32.4864944,20.9417257 L45.4900695,20.4928622 C46.6660918,20.4524645 47.6535915,21.3726346 47.6939892,22.548657 L48.4525685,44.5811209 L62.1990126,54.8690719 C62.1990126,54.8690719 70.3324188,53.7469132 73.6607415,53.5808337 C76.4032974,53.4439304 83.5043177,54.5414016 83.5043177,54.5414016 L83.4212779,46.3877964 C80.9839492,49.3278522 77.305513,51.2018573 73.1916792,51.2018573 C65.8639829,51.2018573 59.9120531,45.2499275 59.9120531,37.9222312 C59.9120531,30.5922905 65.8639829,24.6426051 73.1916792,24.6426051 C76.3135247,24.6426051 79.1840067,25.7221218 81.4530116,27.526553 Z" id="path-21"></path>
        <mask id="mask-22" maskContentUnits="userSpaceOnUse" maskUnits="objectBoundingBox" x="-2" y="-2" width="109.154185" height="202.636769">
            <rect x="-1.38184925" y="-1.22338806" width="109.154185" height="202.636769" fill="white"></rect>
            <use xlink:href="#path-21" fill="black"></use>
        </mask>
        <path d="M60.0022631,28.2459639 C58.3579601,20.4502436 56.2451685,10.4426286 56.238279,10.4449303 C52.7981032,11.4392471 51.0412711,9.83959386 49.7735961,6.9809329 C48.5472584,4.20743335 49.6886252,2.86326427 54.6467958,1.14852803 C57.2257794,0.255484191 59.2972337,0.913758774 60.4340074,5.85081815 C60.7624087,7.28014862 67.84715,34.7895816 67.84715,34.7895816 C67.84715,34.7895816 72.4654367,54.6943319 72.0750296,63.3416662 C71.7121806,71.3422342 66.2212191,86.6390624 66.2212191,86.6390624 C65.8882248,88.1466493 66.0420911,90.3286224 66.1890679,92.1078051 C66.381975,94.4255761 68.8277608,101.859936 69.7004356,104.166199 C72.5343321,111.653497 78.3077647,151.389344 78.3077647,151.389344 L84.8620115,201.09598 C85.0778837,202.71865 83.9755577,204.29989 82.3519233,204.472514 C80.2460213,204.695775 78.8956719,203.821145 78.5121543,202.311256 C76.270758,193.479789 69.2319471,165.74019 69.2319471,165.74019 L68.2811909,152.1604 L56.601128,116.247609 C56.601128,116.247609 52.8532195,116.917392 51.1767653,116.201576 L45.2035362,149.787389 L47.7251069,163.74235 C47.7251069,163.74235 47.6814732,192.363484 47.6676941,201.475754 C47.6653976,203.033977 46.8983624,204.34132 44.4732452,204.513944 C42.8450178,204.631329 41.4005114,203.482801 41.2144938,201.857829 L35.1379216,150.73107 C35.1379216,150.73107 34.3318457,113.382043 36.5020501,103.76571 C37.4895505,99.3902554 38.5298707,94.3358114 38.9960627,92.1998715 C39.140743,91.5392953 36.2609163,93.2724448 34.7107703,91.1779347 C30.363472,85.3017983 25.3295165,67.0841643 21.7630325,57.0972643 C21.0488171,57.9949114 20.3552703,58.7406491 19.7191363,59.2516175 C17.5512284,60.984767 13.6632327,57.1847273 16.1526523,56.1006458 C17.4432924,55.5390409 18.7477115,54.2132851 19.9648631,52.5675986 C19.8615201,52.3512426 19.76277,52.1486966 19.66402,51.9599605 C19.3379152,51.3316075 19.291985,50.5950765 19.5377118,49.9321986 C19.7834387,49.2670191 20.300154,48.7399391 20.9569566,48.4798516 L20.9592531,48.4775499 C21.492044,48.2657972 22.0592826,48.2565906 22.5737014,48.4154051 C23.1868703,47.2967986 23.7449228,46.1873988 24.2248939,45.1815737 C22.4519862,44.435836 19.6043107,43.1630184 19.6043107,43.1630184 C15.8931464,41.4091539 7.15721261,40.2422126 1.49630915,43.2527831 C-3.76729763,46.0516009 9.54328915,13.1332684 11.5711097,19.6607744 C13.4772152,25.7969983 20.7296018,30.6465947 24.2134114,32.3705375 C24.2134114,32.3705375 32.3155077,35.9035847 35.0391716,36.9025049 C37.5538528,37.8231686 32.7518451,49.0690764 30.354286,47.8745151 C29.8398671,47.6190309 29.0659424,47.2668771 28.163413,46.86869 C27.352744,48.3716736 26.3078308,50.2429226 25.1733536,52.0957584 L34.5270493,71.8324876 C34.5270493,71.8324876 35.5283287,58.4897682 40.4933889,56.7635237 C43.8600763,55.591979 48.6253399,55.1362505 52.0287715,54.963626 C54.8351098,54.8232248 62.1012756,55.9510379 62.1012756,55.9510379 L62.0163046,47.5891094 C59.522292,50.6019815 55.7583079,52.5238671 51.5510969,52.5238671 C44.0506869,52.5238671 37.9626321,46.4221681 37.9626321,38.9049485 C37.9626321,31.3900306 44.0506869,25.28603 51.5510969,25.28603 C54.7432493,25.28603 57.6827854,26.3931281 60.0022631,28.2459639 Z" id="path-23"></path>
        <mask id="mask-24" maskContentUnits="userSpaceOnUse" maskUnits="objectBoundingBox" x="-2" y="-2" width="88.6153844" height="207.710905">
            <rect x="-1.72640441" y="-1.18871692" width="88.6153844" height="207.710905" fill="white"></rect>
            <use xlink:href="#path-23" fill="black"></use>
        </mask>
        <path d="M1.52910326,16.832906 C1.63720761,16.8792364 1.90682176,17.0221015 2.28414373,17.273011 C2.9497537,17.7156247 3.62268594,18.2903741 4.25358026,19.0081936 C6.03486114,21.0349008 7.13160178,23.7666719 7.19213558,27.3887683 C7.25366365,31.0703583 6.13636538,33.9505137 4.23453548,36.1785583 C3.59059245,36.9329548 2.90194027,37.5545802 2.21929089,38.0484303 C1.82839432,38.3312172 1.54509446,38.4998951 1.42339666,38.560669 C0.435196259,39.0541604 0.0341553599,40.2553089 0.527646742,41.2435093 C1.02113812,42.2317097 2.22228664,42.6327506 3.21048704,42.1392593 C3.51863629,41.9853745 3.98756876,41.7061701 4.56382804,41.2892859 C5.49310508,40.6170176 6.41637932,39.783606 7.27690095,38.7754819 C9.7901978,35.8310875 11.2700327,32.0163905 11.1915771,27.3219281 C11.1148705,22.7321189 9.65415902,19.0937659 7.25806697,16.3675384 C6.38445052,15.3735544 5.44540693,14.57152 4.49904108,13.9422108 C3.90917755,13.5499666 3.42653632,13.2942213 3.10478045,13.1563259 C2.08952088,12.7212146 0.913763035,13.1915178 0.478651792,14.2067774 C0.0435405499,15.2220369 0.513843689,16.3977948 1.52910326,16.832906 Z" id="path-25"></path>
        <mask id="mask-26" maskContentUnits="userSpaceOnUse" maskUnits="objectBoundingBox" x="-2" y="-2" width="14.878119" height="33.3562999">
            <rect x="-1.68357099" y="10.9941031" width="14.878119" height="33.3562999" fill="white"></rect>
            <use xlink:href="#path-25" fill="black"></use>
        </mask>
        <path d="M5.2997449,9.70171433 C5.52874744,9.79985828 6.00993342,10.0548325 6.65927631,10.486629 C7.77825448,11.230721 8.90455492,12.1926909 9.95859289,13.391955 C12.9147599,16.7554251 14.730784,21.2787937 14.8299166,27.2104885 C14.9308151,33.2478433 13.0830731,38.0109259 9.93948882,41.693719 C8.87241511,42.9438244 7.73040863,43.9746789 6.59440494,44.7964998 C6.20306055,45.0796106 5.84348467,45.3149508 5.52615462,45.5038905 C5.34912779,45.609293 5.23490044,45.6714548 5.1940383,45.6918607 C4.2058379,46.1853521 3.804797,47.3865006 4.29828838,48.374701 C4.79177976,49.3629014 5.99292828,49.7639423 6.98112868,49.2704509 C7.41017241,49.0561934 8.09067022,48.6510221 8.93894209,48.0373555 C10.3215734,47.0371164 11.698202,45.7944756 12.9818543,44.2906426 C16.7369055,39.8914996 18.9471841,34.1938754 18.8293581,27.1436483 C18.7140527,20.2442407 16.5340578,14.8142903 12.9630796,10.7512999 C11.6663195,9.27587115 10.2739077,8.08661635 8.87417365,7.15582883 C8.0122892,6.5826976 7.31807614,6.21484309 6.87542209,6.02513421 C5.86016252,5.59002297 4.68440468,6.06032611 4.24929343,7.07558567 C3.81418219,8.09084524 4.28448533,9.26660309 5.2997449,9.70171433 Z" id="path-27"></path>
        <mask id="mask-28" maskContentUnits="userSpaceOnUse" maskUnits="objectBoundingBox" x="-2" y="-2" width="18.7467726" height="47.6186833">
            <rect x="2.08707065" y="3.86291143" width="18.7467726" height="47.6186833" fill="white"></rect>
            <use xlink:href="#path-27" fill="black"></use>
        </mask>
        <path d="M10.7035239,3.91752552 C10.7626405,3.9428612 10.9165176,4.01608391 11.1515301,4.14061399 C11.5687596,4.36169854 12.0405352,4.6411006 12.5533647,4.98211914 C14.0400748,5.97074356 15.5341072,7.24679225 16.9313617,8.83656158 C20.8404919,13.2842949 23.2399348,19.260848 23.3703754,27.0658837 C23.5032076,35.0140255 21.0629947,41.3043713 16.9122096,46.1671271 C15.5019299,47.8193075 13.9922027,49.1820923 12.4884783,50.269934 C11.9684316,50.6461521 11.4893465,50.9597103 11.0647646,51.2125082 C10.8233866,51.3562257 10.6631942,51.4434014 10.5978173,51.4760495 C9.60961694,51.9695409 9.20857604,53.1706894 9.70206742,54.1588898 C10.1955588,55.1470902 11.3967073,55.5481311 12.3849077,55.0546397 C12.9120103,54.7914132 13.7641111,54.2840687 14.8330154,53.5107896 C16.5833675,52.2445298 18.3277167,50.6699587 19.9545751,48.7640507 C24.7168271,43.1849451 27.5195766,35.9600577 27.3698169,26.9990436 C27.2232035,18.226295 24.4597898,11.3431601 19.9358484,6.19590644 C18.2958718,4.32997252 16.535728,2.82663891 14.768262,1.65131898 C13.6857384,0.931468302 12.819917,0.472680796 12.2792011,0.240945403 C11.2639416,-0.194165839 10.0881837,0.2761373 9.65307247,1.29139687 C9.21796123,2.30665643 9.68826437,3.48241428 10.7035239,3.91752552 Z" id="path-29"></path>
        <mask id="mask-30" maskContentUnits="userSpaceOnUse" maskUnits="objectBoundingBox" x="-2" y="-2" width="21.8846807" height="59.1870609">
            <rect x="7.49084969" y="-1.92127738" width="21.8846807" height="59.1870609" fill="white"></rect>
            <use xlink:href="#path-29" fill="black"></use>
        </mask>
    </defs>
    <g id="Page-1" stroke="none" stroke-width="1" fill="none" fill-rule="evenodd">
        <g id="Group-3" transform="translate(1.000000, 2.000000)">
            <g id="noun_905593_cc" transform="translate(85.000000, 0.000000)">
                <g id="Group">
                    <g id="Shape">
                        <use fill="#000000" fill-rule="evenodd" xlink:href="#path-1"></use>
                        <use stroke="#FFFFFF" mask="url(#mask-2)" stroke-width="4" xlink:href="#path-1"></use>
                    </g>
                    <g id="Shape">
                        <use fill="#000000" fill-rule="evenodd" xlink:href="#path-3"></use>
                        <use stroke="#FFFFFF" mask="url(#mask-4)" stroke-width="4" xlink:href="#path-3"></use>
                    </g>
                    <g id="Shape">
                        <use fill="#000000" fill-rule="evenodd" xlink:href="#path-5"></use>
                        <use stroke="#FFFFFF" mask="url(#mask-6)" stroke-width="4" xlink:href="#path-5"></use>
                    </g>
                    <g id="Shape">
                        <use fill="#000000" fill-rule="evenodd" xlink:href="#path-7"></use>
                        <use stroke="#FFFFFF" mask="url(#mask-8)" stroke-width="4" xlink:href="#path-7"></use>
                    </g>
                    <g id="Shape">
                        <use fill="#000000" fill-rule="evenodd" xlink:href="#path-9"></use>
                        <use stroke="#FFFFFF" mask="url(#mask-10)" stroke-width="4" xlink:href="#path-9"></use>
                    </g>
                    <g id="Shape">
                        <use fill="#000000" fill-rule="evenodd" xlink:href="#path-11"></use>
                        <use stroke="#FFFFFF" mask="url(#mask-12)" stroke-width="4" xlink:href="#path-11"></use>
                    </g>
                    <g id="Shape">
                        <use fill="#000000" fill-rule="evenodd" xlink:href="#path-13"></use>
                        <use stroke="#FFFFFF" mask="url(#mask-14)" stroke-width="4" xlink:href="#path-13"></use>
                    </g>
                    <g id="Shape">
                        <use fill="#000000" fill-rule="evenodd" xlink:href="#path-15"></use>
                        <use stroke="#FFFFFF" mask="url(#mask-16)" stroke-width="4" xlink:href="#path-15"></use>
                    </g>
                    <g id="Shape">
                        <use fill="#000000" fill-rule="evenodd" xlink:href="#path-17"></use>
                        <use stroke="#FFFFFF" mask="url(#mask-18)" stroke-width="4" xlink:href="#path-17"></use>
                    </g>
                    <g id="Oval">
                        <use fill="#000000" fill-rule="evenodd" xlink:href="#path-19"></use>
                        <use stroke="#FFFFFF" mask="url(#mask-20)" stroke-width="4" xlink:href="#path-19"></use>
                    </g>
                </g>
            </g>
            <g id="noun_905590_cc" transform="translate(0.000000, 10.000000)">
                <g id="Group">
                    <g transform="translate(0.304645, 0.045455)" id="Shape">
                        <g transform="translate(0.127462, 0.190522)">
                            <g transform="translate(0.040760, 0.169111)">
                                <g>
                                    <use fill="#000000" fill-rule="evenodd" xlink:href="#path-21"></use>
                                    <use stroke="#FFFFFF" mask="url(#mask-22)" stroke-width="4" xlink:href="#path-21"></use>
                                </g>
                            </g>
                        </g>
                    </g>
                </g>
            </g>
            <g id="noun_905599_cc" transform="translate(251.500000, 111.500000) scale(-1, 1) translate(-251.500000, -111.500000) translate(208.000000, 8.000000)">
                <g id="Group">
                    <g transform="translate(0.656214, 0.072165)" id="Shape">
                        <g transform="translate(0.349148, 0.260643)">
                            <g>
                                <use fill="#000000" fill-rule="evenodd" xlink:href="#path-23"></use>
                                <use stroke="#FFFFFF" mask="url(#mask-24)" stroke-width="4" xlink:href="#path-23"></use>
                            </g>
                        </g>
                    </g>
                </g>
            </g>
            <g id="Group-4-Copy" transform="translate(270.000000, 97.000000)" stroke="#FFFFFF" font-weight="600" font-family="UniSansHeavyCAPS, Uni Sans" stroke-width="4" fill="#FFFFFF" font-size="64">
                <text id="Action">
                    <tspan x="4.304" y="48">Action</tspan>
                </text>
                <text id="Page">
                    <tspan x="0.264" y="105">Page</tspan>
                </text>
            </g>
            <g id="Group-4" transform="translate(270.000000, 97.000000)" font-size="64" font-family="UniSansHeavyCAPS, Uni Sans" fill="#000000" font-weight="600">
                <text id="Action">
                    <tspan x="4.304" y="48">Action</tspan>
                </text>
                <text id="Page">
                    <tspan x="0.264" y="105">Page</tspan>
                </text>
            </g>
            <g id="Group" transform="translate(6.000000, 37.000000)" fill="#FFFFFF">
                <path d="M17.2199608,7.16932258 L17.5232157,6.11651613 L16.826549,5.33970968 L10.9186667,9.12135484 L8.53882353,8.67545161 C8.3972549,8.64429032 8.25047059,8.70216129 8.1692549,8.82012903 C8.08729412,8.93883871 8.08431373,9.09464516 8.16180392,9.21558065 L9.38078431,11.0963871 L0.00894117647,17.1038387 L1.14596078,18.8622258 L11.362,12.3116774 L12.3365882,13.8244839 L13.9921961,12.7627742 L13.428902,11.8850645 L14.1322745,11.4339677 L14.6955686,12.3131613 L15.5561569,11.7611613 L14.9928627,10.8827097 L15.6969804,10.4316129 L16.2602745,11.3100645 L17.1193725,10.7595484 L16.5560784,9.88109677 L17.2601961,9.42925806 L17.8227451,10.3084516 L18.6818431,9.75793548 L18.1192941,8.87874194 L19.0372549,8.28741935 L17.2199608,7.16932258 Z" id="Shape"></path>
                <polygon id="Shape" points="18.665451 4.77732258 16.3906667 2.42835484 16.895098 1.94312903 19.1691373 4.29358065"></polygon>
                <polygon id="Shape" points="20.7517255 3.51454839 20.049098 3.51454839 20.049098 0.477806452 20.7517255 0.477806452"></polygon>
                <polygon id="Shape" points="22.0027451 4.80329032 21.5251373 4.28987097 23.5898039 2.38903226 24.0681569 2.90170968"></polygon>
                <path d="M36.3756863,14.8780323 L37.0798039,13.7332258 L27.9717255,8.14274194 L27.4635686,6.16770968 C27.3801176,5.99409677 27.208,5.88058065 27.0135294,5.87093548 C26.820549,5.86129032 26.6372549,5.957 26.5344314,6.12022581 L26.0307451,6.91558065 L23.4445098,5.33970968 L23.2187451,6.55129032 L22.116,6.74790323 L21.7859216,8.55229032 L23.8550588,9.88480645 C23.5875686,10.1645161 22.6956863,11.0570645 21.348549,12.0045161 C19.0059608,13.6516129 16.6581569,14.6932903 16.6581569,14.6932903 L18.1021569,18.9163871 C18.1021569,18.9163871 21.3470588,17.7827097 24.0450588,15.6392581 C24.3907843,15.3647419 24.6985098,15.1035806 24.9853725,14.8513226 C25.0218824,15.697871 25.4637255,16.5147419 26.2408627,16.9940323 C27.2422745,17.6105806 28.4895686,17.4770323 29.3456863,16.7625484 L28.8561569,22.2610323 L32.8670196,22.2491613 L32.5287451,17.7508065 C32.5287451,17.7508065 32.4907451,17.1839677 32.8938431,16.9524839 C33.2537255,16.7432581 33.6948235,16.9554516 33.6948235,16.9554516 L34.7096471,17.5742258 L35.5471373,16.2120323 L36.6357255,16.8797742 L37.4590588,15.5420645 L36.3756863,14.8780323 Z M27.6163137,16.2780645 C26.8026667,16.2780645 26.1425098,15.6214516 26.1425098,14.812 C26.1425098,14.0025484 26.8026667,13.3459355 27.6163137,13.3459355 C27.9106275,13.3459355 28.1825882,13.4327419 28.4128235,13.581129 L27.2899608,14.5753226 C27.260902,14.6020323 27.2363137,14.6324516 27.215451,14.6636129 C27.1238039,14.8127419 27.1342353,15.0093548 27.2579216,15.145129 C27.4047059,15.3120645 27.6625098,15.3269032 27.830902,15.1785161 L28.9455686,14.1895161 C29.0349804,14.3794516 29.0878824,14.5886774 29.0878824,14.8112581 C29.0886275,15.6221935 28.4307059,16.2780645 27.6163137,16.2780645 Z M34.1843529,14.5189355 C34.0561961,14.7229677 33.7879608,14.7852903 33.5838039,14.6584194 C33.3796471,14.5322903 33.3148235,14.2666774 33.4429804,14.0611613 C33.5696471,13.857871 33.8378824,13.7940645 34.0427843,13.9201935 C34.2484314,14.0470645 34.3102745,14.3163871 34.1843529,14.5189355 Z" id="Shape"></path>
            </g>
            <g id="Group-2" transform="translate(307.168835, 32.536250) rotate(-20.000000) translate(-307.168835, -32.536250) translate(293.168835, 4.536250)">
                <g id="Line">
                    <use fill="#000000" fill-rule="evenodd" xlink:href="#path-25"></use>
                    <use stroke="#FFFFFF" mask="url(#mask-26)" stroke-width="4" xlink:href="#path-25"></use>
                </g>
                <g id="Line-Copy">
                    <use fill="#000000" fill-rule="evenodd" xlink:href="#path-27"></use>
                    <use stroke="#FFFFFF" mask="url(#mask-28)" stroke-width="4" xlink:href="#path-27"></use>
                </g>
                <g id="Line-Copy-2">
                    <use fill="#000000" fill-rule="evenodd" xlink:href="#path-29"></use>
                    <use stroke="#FFFFFF" mask="url(#mask-30)" stroke-width="4" xlink:href="#path-29"></use>
                </g>
            </g>
        </g>
    </g>
</svg>