<svg width="1200" height="630" viewBox="0 0 1200 630" xmlns="http://www.w3.org/2000/svg"><title>Fb Preview</title><path d="M437.052 138.362l.164-.07 161.523 119.962 161.523-119.962.164.07c15.687-11.6 104.69-77.528 105.851-78.39-.891-1.198-16.79-22.649-16.79-22.649l149.978-28.21-70.748 135.136s-17.191-23.212-18.114-24.433c-1.13.847-61.855 45.857-71.757 53.184l-.157-.067c-9.266 6.894-87.302 64.833-177.435 131.75a8351599.595 8351599.595 0 0 0 215.254 159.865c.72-.175 16.998-4.314 16.998-4.314l105.96 78.584-56.407 22.644c-.095.95-5.633 60.768-5.633 60.768l-106.149-78.683s.905-18.299.932-19.105c-.297-.234-116.281-86.342-233.47-173.345C481.551 438.1 365.567 524.208 365.27 524.442c.027.806.932 19.105.932 19.105L260.053 622.23s-5.539-59.817-5.633-60.768l-56.407-22.644 105.96-78.584s16.277 4.139 16.998 4.314c.269-.197 107.05-79.503 215.253-159.864-90.132-66.918-168.169-124.857-177.435-131.75l-.157.066c-9.901-7.327-70.626-52.337-71.756-53.184-.923 1.22-18.115 24.433-18.115 24.433L198.013 9.112l149.98 28.211s-15.9 21.451-16.792 22.649c1.162.862 90.164 66.79 105.851 78.39z" stroke="#05027F" stroke-width="16" fill="#D3001D" fill-rule="evenodd"/></svg>