<svg width="1240" height="796" viewBox="0 0 1240 796" xmlns="http://www.w3.org/2000/svg" xmlns:xlink="http://www.w3.org/1999/xlink"><title>NoSunoco-graphic</title><defs><path d="M160.353 287.163c4.48-10.093 17.075-18.226 28.115-18.166l926.228 5.035c29.269.16 43.093 21.842 30.869 48.452l-71.824 156.34c-4.612 10.039-17.314 18.176-28.345 18.176H564.503l-441.53-5.577c-29.27-.37-43.368-22.36-31.49-49.118l68.87-155.142z" id="a"/><mask id="c" x="-24" y="-24" width="1110.745" height="276.003"><path fill="#fff" d="M63.271 244.997h1110.745V521H63.271z"/><use xlink:href="#a"/></mask><path id="b" d="M0 379.043l612.535-263.027L1240 381.293 612.535 646.57z"/><mask id="d" x="0" y="0" width="1240" height="530.555" fill="#fff"><use xlink:href="#b"/></mask><path id="f" d="M293 11h482v215H293z"/><filter x="-50%" y="-50%" width="200%" height="200%" filterUnits="objectBoundingBox" id="e"><feOffset dx="2" dy="2" in="SourceAlpha" result="shadowOffsetOuter1"/><feGaussianBlur stdDeviation="11" in="shadowOffsetOuter1" result="shadowBlurOuter1"/><feColorMatrix values="0 0 0 0 0 0 0 0 0 0 0 0 0 0 0 0 0 0 0.25317029 0" in="shadowBlurOuter1"/></filter></defs><g fill="none" fill-rule="evenodd"><use fill="#FFFF0C" xlink:href="#a"/><use stroke="#001EA7" mask="url(#c)" stroke-width="48" xlink:href="#a"/><use stroke="#0025A5" mask="url(#d)" stroke-width="48" stroke-linecap="square" stroke-linejoin="round" fill="#FFFF0C" xlink:href="#b"/><path d="M438.546 188.193l.185-.079 181.461 134.813 181.462-134.813.184.08a410021.258 410021.258 0 0 0 118.917-88.095c-1-1.346-18.862-25.453-18.862-25.453l168.491-31.702-79.48 151.865s-19.314-26.086-20.35-27.458c-1.27.952-69.491 51.534-80.616 59.768l-.176-.075c-10.41 7.747-98.079 72.858-199.338 148.059 80.608 59.886 161.216 119.771 241.825 179.655.81-.197 19.097-4.848 19.097-4.848l119.04 88.312-63.37 25.447c-.107 1.067-6.329 68.29-6.329 68.29l-119.252-88.423s1.017-20.564 1.047-21.47c-.334-.263-130.635-97.03-262.29-194.803-131.654 97.773-261.955 194.54-262.289 194.803.03.906 1.047 21.47 1.047 21.47l-119.252 88.423s-6.222-67.222-6.328-68.29L170 638.222l119.04-88.312s18.286 4.651 19.096 4.848c.302-.222 120.265-89.345 241.824-179.654-101.258-75.202-188.928-140.313-199.338-148.06l-.176.075a176628.4 176628.4 0 0 1-80.614-59.768c-1.037 1.371-20.35 27.458-20.35 27.458L170 42.943l168.494 31.703S320.63 98.753 319.629 100.1c1.305.969 101.294 75.058 118.917 88.094z" stroke="#001EA7" stroke-width="16" fill="#D80F0F"/><g><g transform="translate(87 268)"><use fill="#000" filter="url(#e)" xlink:href="#f"/><use fill="#D8D8D8" xlink:href="#f"/></g><path d="M160.353 287.163c4.48-10.093 17.075-18.226 28.115-18.166l926.228 5.035c29.269.16 43.093 21.842 30.869 48.452l-71.824 156.34c-4.612 10.039-17.314 18.176-28.345 18.176H564.503l-441.53-5.577c-29.27-.37-43.368-22.36-31.49-49.118l68.87-155.142z" fill="#FFFF0C"/><path d="M252.56 292.786h35.444l-72.652 180.428h-33.23l6.46-94.71-38.138 94.71H115l72.652-180.428h33.23l-7.138 96.397 38.816-96.397zm85.066 0h32.786c21.71 0 27.887 11.616 18.532 34.849l-44.587 110.73c-9.355 23.233-24.888 34.85-46.597 34.85h-32.786c-21.71 0-27.887-11.617-18.532-34.85l44.587-110.73c9.355-23.233 24.887-34.85 46.597-34.85zM308.192 431.9l39.382-97.802c1.66-4.122.644-6.183-3.049-6.183h-9.304c-3.692 0-6.368 2.06-8.028 6.183L287.812 431.9c-1.66 4.122-.644 6.183 3.048 6.183h9.304c3.693 0 6.369-2.06 8.028-6.183zm154.626 0l10.298-25.575c1.66-4.122.644-6.182-3.048-6.182H448.8c-10.929 0-17.42-3.045-19.472-9.134-2.052-6.09-.777-14.849 3.825-26.278l14.938-37.097c9.355-23.233 24.813-34.85 46.375-34.85h30.35c21.561 0 27.665 11.617 18.31 34.85l-8.714 21.64h-38.767l6.11-15.176c1.66-4.122.644-6.183-3.048-6.183h-6.424c-3.692 0-6.368 2.06-8.028 6.183l-10.75 26.699c-1.66 4.122-.644 6.183 3.048 6.183h20.823c10.93 0 17.55 2.904 19.863 8.712 2.314 5.808 1.207 14.333-3.32 25.575l-14.938 37.097c-9.355 23.233-24.813 34.85-46.375 34.85h-30.128c-21.71 0-27.887-11.617-18.532-34.85l8.714-21.64h38.767l-6.11 15.176c-1.66 4.122-.644 6.183 3.048 6.183h6.424c3.692 0 6.368-2.06 8.028-6.183zm169.439-139.115h38.767l-58.62 145.58c-9.355 23.232-24.887 34.848-46.597 34.848h-32.786c-21.71 0-27.887-11.616-18.532-34.849l58.62-145.58h38.767L555.86 431.902c-1.66 4.122-.643 6.183 3.049 6.183h9.304c3.692 0 6.368-2.06 8.028-6.183l56.017-139.115zm121.397 0h35.444l-72.653 180.428h-33.229l6.459-94.71-38.137 94.71h-35.444l72.652-180.428h33.23l-7.138 96.397 38.816-96.397zm85.066 0h32.786c21.71 0 27.887 11.616 18.532 34.849l-44.588 110.73c-9.355 23.233-24.887 34.85-46.597 34.85h-32.786c-21.71 0-27.887-11.617-18.531-34.85l44.587-110.73c9.355-23.233 24.887-34.85 46.597-34.85zM809.286 431.9l39.382-97.802c1.66-4.122.643-6.183-3.049-6.183h-9.304c-3.692 0-6.368 2.06-8.028 6.183L788.906 431.9c-1.66 4.122-.644 6.183 3.048 6.183h9.304c3.692 0 6.368-2.06 8.028-6.183zm179.939-71.665h-38.768l11.657-28.948c1.66-4.122.643-6.183-3.049-6.183h-7.753c-3.693 0-6.368 2.061-8.028 6.183l-41.645 103.424c-1.66 4.122-.644 6.183 3.048 6.183h7.754c3.692 0 6.368-2.061 8.028-6.183l11.203-27.823h38.767l-12.674 31.476c-9.356 23.233-24.888 34.85-46.597 34.85h-31.236c-21.71 0-27.887-11.617-18.532-34.85l44.588-110.73c9.355-23.233 24.887-34.85 46.597-34.85h31.235c21.71 0 27.887 11.617 18.532 34.85l-13.127 32.6zm73.459-67.45h32.786c21.71 0 27.886 11.616 18.531 34.849l-44.587 110.73c-9.355 23.233-24.887 34.85-46.597 34.85h-32.786c-21.71 0-27.887-11.617-18.532-34.85l44.588-110.73c9.355-23.233 24.887-34.85 46.597-34.85zM1033.25 431.9l39.381-97.802c1.66-4.122.644-6.183-3.048-6.183h-9.304c-3.692 0-6.368 2.06-8.028 6.183l-39.382 97.802c-1.66 4.122-.643 6.183 3.049 6.183h9.304c3.692 0 6.368-2.06 8.028-6.183z" fill="#001EA7"/></g></g></svg>